<?xml version="1.0" encoding="utf-8"?>
<!-- Generator: Adobe Illustrator 21.0.0, SVG Export Plug-In . SVG Version: 6.00 Build 0)  -->
<svg version="1.1" xmlns="http://www.w3.org/2000/svg" xmlns:xlink="http://www.w3.org/1999/xlink" x="0px" y="0px"
	 viewBox="0 0 20 18" style="enable-background:new 0 0 20 18;" xml:space="preserve">
<style type="text/css">
	.st0{display:none;}
	.st1{display:inline;fill:#505050;}
	.st2{display:inline;}
	.st3{clip-path:url(#SVGID_2_);fill:#505050;}
	.st4{clip-path:url(#SVGID_4_);fill:#505050;}
	.st5{display:none;fill:#505050;}
	.st6{fill:none;}
	.st7{display:none;fill:#F6F4F5;}
	.st8{font-family:'Montserrat-SemiBold';}
	.st9{font-size:13px;}
	.st10{display:inline;clip-path:url(#SVGID_6_);fill:#505050;}
	.st11{clip-path:url(#SVGID_8_);fill:#505050;}
	.st12{clip-path:url(#SVGID_10_);fill:#505050;}
	.st13{display:none;fill:none;}
	.st14{fill:#505050;}
	.st15{clip-path:url(#SVGID_12_);fill:#505050;}
</style>
<g id="Layer_1" class="st0">
	<g>
		<path class="st1" d="M10.7,13.2c2.3,0,4.1-1.9,4.1-4.1S13,4.9,10.7,4.9C8.5,4.9,6.6,6.7,6.6,9S8.5,13.2,10.7,13.2L10.7,13.2z
			 M10.7,13.2"/>
		<path class="st1" d="M10.8,14.8c3.3,0,5.9-2.6,5.9-5.9c0-3.3-2.6-5.9-5.9-5.9S4.9,5.7,4.9,8.9C4.9,12.2,7.6,14.8,10.8,14.8
			L10.8,14.8z M10.8,4c2.8,0,5,2.2,5,5c0,2.8-2.2,5-5,5c-2.8,0-5-2.2-5-5C5.8,6.2,8.1,4,10.8,4L10.8,4z M10.8,4"/>
		<path class="st1" d="M20,15.4L19.7,2.2c0-0.3-0.2-0.5-0.5-0.5c-0.1,0-0.1,0-0.2,0v0c0,0,0,0,0,0c-0.1,0-0.1,0.1-0.1,0.1
			c-0.4,0.3-1.6,1.6-1.7,3.3c-0.2,2.6,1.1,3.7,1.5,4.6l-0.3,5.7c0,0.3,0.6,0.5,0.9,0.5C19.4,15.9,20,15.7,20,15.4L20,15.4z M20,15.4
			"/>
		<path class="st1" d="M0.9,7.3l0.9,0.4C1.9,7.8,2,7.9,2.1,7.9l-0.3,7.7c0,0.2,0.6,0.4,0.9,0.4c0.3,0,0.9-0.2,0.9-0.4L3.2,7.9
			c0.1,0,0.2-0.1,0.3-0.1l0.7-0.4C4.6,7,5,6.4,5,5.8V2.3c0-0.3-0.2-0.5-0.5-0.5C4.2,1.8,4,2.1,4,2.3v3.1H3.7V2.3
			c0-0.3-0.2-0.5-0.5-0.5c-0.3,0-0.5,0.2-0.5,0.5v3.1H2.3V2.3c0-0.3-0.2-0.5-0.5-0.5c-0.3,0-0.5,0.2-0.5,0.5v3.1H1v-3
			c0-0.3-0.2-0.5-0.5-0.5C0.2,1.9,0,2.2,0,2.5v3.4C0,6.4,0.4,7.1,0.9,7.3L0.9,7.3z M0.9,7.3"/>
	</g>
	<g>
		<path class="st1" d="M7.8,9.7c0-0.2-0.2-0.4-0.4-0.4H6c-0.2,0-0.4,0.2-0.4,0.4v1.4c0,0.2,0.2,0.4,0.4,0.4h1.4
			c0.2,0,0.4-0.2,0.4-0.4V9.7z M7.8,9.7"/>
		<path class="st1" d="M11.3,9.7c0-0.2-0.2-0.4-0.4-0.4H9.5c-0.2,0-0.4,0.2-0.4,0.4v1.4c0,0.2,0.2,0.4,0.4,0.4h1.4
			c0.2,0,0.4-0.2,0.4-0.4V9.7z M11.3,9.7"/>
		<path class="st1" d="M14.8,9.7c0-0.2-0.2-0.4-0.4-0.4H13c-0.2,0-0.4,0.2-0.4,0.4v1.4c0,0.2,0.2,0.4,0.4,0.4h1.4
			c0.2,0,0.4-0.2,0.4-0.4V9.7z M14.8,9.7"/>
		<path class="st1" d="M7.8,13.2c0-0.2-0.2-0.4-0.4-0.4H6c-0.2,0-0.4,0.2-0.4,0.4v1.4C5.6,14.8,5.8,15,6,15h1.4
			c0.2,0,0.4-0.2,0.4-0.4V13.2z M7.8,13.2"/>
		<path class="st1" d="M11.3,13.2c0-0.2-0.2-0.4-0.4-0.4H9.5c-0.2,0-0.4,0.2-0.4,0.4v1.4c0,0.2,0.2,0.4,0.4,0.4h1.4
			c0.2,0,0.4-0.2,0.4-0.4V13.2z M11.3,13.2"/>
		<g class="st2">
			<defs>
				<rect id="SVGID_1_" x="1.6" width="17.2" height="17.6"/>
			</defs>
			<clipPath id="SVGID_2_">
				<use xlink:href="#SVGID_1_"  style="overflow:visible;"/>
			</clipPath>
			<path class="st3" d="M14.8,13.2c0-0.2-0.2-0.4-0.4-0.4H13c-0.2,0-0.4,0.2-0.4,0.4v1.4c0,0.2,0.2,0.4,0.4,0.4h1.4
				c0.2,0,0.4-0.2,0.4-0.4V13.2z M14.8,13.2"/>
			<path class="st3" d="M17.3,2v2.1c0,1-0.8,1.7-1.7,1.7h-1.1c-1,0-1.8-0.8-1.8-1.7V1.9H7.7v2.1c0,1-0.8,1.7-1.8,1.7H4.9
				c-1,0-1.7-0.8-1.7-1.7V2C2.3,2,1.6,2.7,1.6,3.5V16c0,0.9,0.7,1.6,1.6,1.6h14c0.9,0,1.6-0.7,1.6-1.6V3.5C18.8,2.7,18.1,2,17.3,2
				L17.3,2z M16.7,15.2c0,0.4-0.3,0.7-0.7,0.7H4.3c-0.4,0-0.7-0.3-0.7-0.7V8.8c0-0.4,0.3-0.7,0.7-0.7h11.8c0.4,0,0.7,0.3,0.7,0.7
				V15.2z M16.7,15.2"/>
		</g>
		<path class="st1" d="M4.9,4.7h1.1c0.3,0,0.6-0.3,0.6-0.6V0.6C6.5,0.3,6.3,0,5.9,0H4.9C4.5,0,4.3,0.3,4.3,0.6v3.5
			C4.3,4.4,4.5,4.7,4.9,4.7L4.9,4.7z M4.9,4.7"/>
		<path class="st1" d="M14.4,4.7h1.1c0.3,0,0.6-0.3,0.6-0.6V0.6c0-0.3-0.3-0.6-0.6-0.6h-1.1c-0.3,0-0.6,0.3-0.6,0.6v3.5
			C13.8,4.4,14.1,4.7,14.4,4.7L14.4,4.7z M14.4,4.7"/>
	</g>
	<g>
		<path class="st1" d="M7.6,8.8c0,0.2-0.1,0.3-0.3,0.3H6.2C6,9.1,5.9,9,5.9,8.8V7.7c0-0.2,0.1-0.3,0.3-0.3h1.1
			c0.2,0,0.3,0.1,0.3,0.3V8.8z M10,7.7c0-0.2-0.1-0.3-0.3-0.3H8.5c-0.2,0-0.3,0.1-0.3,0.3v1.1c0,0.2,0.1,0.3,0.3,0.3h1.1
			C9.8,9.1,10,9,10,8.8V7.7z M12.3,7.7c0-0.2-0.1-0.3-0.3-0.3h-1.1c-0.2,0-0.3,0.1-0.3,0.3v1.1c0,0.2,0.1,0.3,0.3,0.3H12
			c0.2,0,0.3-0.1,0.3-0.3V7.7z M7.6,10c0-0.2-0.1-0.3-0.3-0.3H6.2C6,9.7,5.9,9.8,5.9,10v1.1c0,0.2,0.1,0.3,0.3,0.3h1.1
			c0.2,0,0.3-0.1,0.3-0.3V10z M10,10c0-0.2-0.1-0.3-0.3-0.3H8.5c-0.2,0-0.3,0.1-0.3,0.3v1.1c0,0.2,0.1,0.3,0.3,0.3h1.1
			c0.2,0,0.3-0.1,0.3-0.3V10z M12,9.7h-1.1c-0.2,0-0.3,0.1-0.3,0.3v1.1c0,0.2,0.1,0.3,0.3,0.3H12c0.2,0,0.3-0.1,0.3-0.3V10
			C12.3,9.8,12.2,9.7,12,9.7L12,9.7z M4.9,12H3.8c-0.2,0-0.3,0.1-0.3,0.3v1.1c0,0.2,0.1,0.3,0.3,0.3h1.1c0.2,0,0.3-0.1,0.3-0.3v-1.1
			C5.2,12.1,5.1,12,4.9,12L4.9,12z M5.2,10c0-0.2-0.1-0.3-0.3-0.3H3.8c-0.2,0-0.3,0.1-0.3,0.3v1.1c0,0.2,0.1,0.3,0.3,0.3h1.1
			c0.2,0,0.3-0.1,0.3-0.3V10z M9.7,12H8.5c-0.2,0-0.3,0.1-0.3,0.3v1.1c0,0.2,0.1,0.3,0.3,0.3h1.1c0.2,0,0.3-0.1,0.3-0.3v-1.1
			C10,12.1,9.8,12,9.7,12L9.7,12z M7.3,12H6.2c-0.2,0-0.3,0.1-0.3,0.3v1.1c0,0.2,0.1,0.3,0.3,0.3h1.1c0.2,0,0.3-0.1,0.3-0.3v-1.1
			C7.6,12.1,7.5,12,7.3,12L7.3,12z M14.4,9.1c0.2,0,0.3-0.1,0.3-0.3V7.7c0-0.2-0.1-0.3-0.3-0.3h-1.1c-0.2,0-0.3,0.1-0.3,0.3v1.1
			c0,0.2,0.1,0.3,0.3,0.3H14.4z M2.8,16.2h8.6c-0.1-0.4-0.2-0.9-0.2-1.4H2.8c-0.2,0-0.4-0.2-0.4-0.4V6.3h13.4v3.8
			c0.5,0,0.9,0.1,1.4,0.2V3.5c0-1-0.8-1.8-1.8-1.8h-2V0.6c0-0.4-0.3-0.6-0.6-0.6h-1c-0.4,0-0.6,0.3-0.6,0.6v1.1H7.1V0.6
			C7.1,0.3,6.8,0,6.4,0h-1C5,0,4.8,0.3,4.8,0.6v1.1h-2C1.8,1.7,1,2.5,1,3.5v10.9C1,15.4,1.8,16.2,2.8,16.2L2.8,16.2z M19.2,14.8
			c0,1.9-1.5,3.4-3.4,3.4c-1.9,0-3.4-1.5-3.4-3.4s1.5-3.4,3.4-3.4C17.7,11.4,19.2,12.9,19.2,14.8L19.2,14.8z M17.5,13.9
			c0-0.1,0-0.2-0.1-0.3c-0.2-0.2-0.4-0.2-0.6,0l-1.5,1.5l-0.6-0.6c-0.2-0.2-0.4-0.2-0.6,0c-0.1,0.1-0.1,0.2-0.1,0.3
			c0,0.1,0,0.2,0.1,0.3l0.9,0.9c0.2,0.2,0.4,0.2,0.6,0l1.8-1.8C17.5,14.1,17.5,14,17.5,13.9L17.5,13.9z M17.5,13.9"/>
	</g>
	<g>
		<path class="st1" d="M18.5,6l-1.3-1.3c-0.4,0.4-0.9,0.6-1.5,0.6c-0.6,0-1.1-0.2-1.5-0.6c-0.4-0.4-0.6-0.9-0.6-1.5
			c0-0.6,0.2-1.1,0.6-1.5l-1.3-1.3c-0.3-0.3-0.6-0.4-1-0.4c-0.4,0-0.7,0.1-1,0.4l-9.7,9.7c-0.3,0.3-0.4,0.6-0.4,1
			c0,0.4,0.1,0.7,0.4,1l1.3,1.3C3,13,3.5,12.8,4,12.8c0.6,0,1.1,0.2,1.5,0.6c0.4,0.4,0.6,0.9,0.6,1.5c0,0.6-0.2,1.1-0.6,1.5l1.3,1.3
			c0.3,0.3,0.6,0.4,1,0.4c0.4,0,0.7-0.1,1-0.4l9.7-9.7c0.3-0.3,0.4-0.6,0.4-1C18.8,6.6,18.7,6.2,18.5,6L18.5,6z M15.6,8.1L9,14.7
			c-0.1,0.1-0.3,0.2-0.5,0.2c-0.2,0-0.4-0.1-0.5-0.2l-3.9-3.9c-0.1-0.1-0.2-0.3-0.2-0.5c0-0.2,0.1-0.3,0.2-0.5l6.6-6.6
			c0.1-0.1,0.3-0.2,0.5-0.2c0.2,0,0.4,0.1,0.5,0.2l3.9,3.9c0.1,0.1,0.2,0.3,0.2,0.5C15.8,7.8,15.7,8,15.6,8.1L15.6,8.1z M15.6,8.1"
			/>
		<path class="st1" d="M11.2,4.3l3.4,3.4l-6.1,6.1l-3.4-3.4L11.2,4.3z M11.2,4.3"/>
	</g>
	<g>
		<path class="st1" d="M17.2,1.6h-2.5V0h-1.6v4.9h1.6V3.3h2.5v12.3H2.5V3.3h1.6V1.6H2.5c-0.9,0-1.6,0.7-1.6,1.6v12.3
			c0,0.9,0.7,1.6,1.6,1.6h14.7c0.9,0,1.6-0.7,1.6-1.6V3.3C18.9,2.4,18.1,1.6,17.2,1.6z"/>
		<polygon class="st1" points="6.6,3.3 12.3,3.3 12.3,1.6 6.6,1.6 6.6,0 4.9,0 4.9,4.9 6.6,4.9 		"/>
		<rect x="4.1" y="6.5" class="st1" width="3.3" height="3.3"/>
		<rect x="8.2" y="6.5" class="st1" width="3.3" height="3.3"/>
		<rect x="12.3" y="6.5" class="st1" width="3.3" height="3.3"/>
		<rect x="4.1" y="10.6" class="st1" width="3.3" height="3.3"/>
		<rect x="8.2" y="10.6" class="st1" width="3.3" height="3.3"/>
	</g>
	<g class="st2">
		<g>
			<defs>
				<rect id="SVGID_3_" x="0.8" y="1" width="18" height="16.5"/>
			</defs>
			<clipPath id="SVGID_4_">
				<use xlink:href="#SVGID_3_"  style="overflow:visible;"/>
			</clipPath>
			<path class="st4" d="M18.4,5.7h-0.4l-1.7-2.1V2.5c0-0.8-0.7-1.5-1.5-1.5H4.9C4,1,3.3,1.7,3.3,2.5v1.1L1.7,5.7H1.3
				C1,5.7,0.8,5.8,0.8,6.1v2.5c0,0.2,0.2,0.4,0.4,0.4h1.2c0.2,0,0.4-0.2,0.4-0.4V6.1c0-0.2-0.1-0.3-0.2-0.4l0.7-0.8v9.3
				c0,0.5,0.3,1,0.7,1.3v1.6c0,0.2,0.2,0.4,0.4,0.4h1.3c0.2,0,0.4-0.2,0.4-0.4v-1.4h7.2v1.4c0,0.2,0.2,0.4,0.4,0.4h1.3
				c0.2,0,0.4-0.2,0.4-0.4v-1.6c0.4-0.3,0.7-0.7,0.7-1.3V4.9l0.7,0.8c-0.1,0.1-0.2,0.2-0.2,0.4v2.5c0,0.2,0.2,0.4,0.4,0.4h1.2
				c0.2,0,0.4-0.2,0.4-0.4V6.1C18.8,5.8,18.6,5.7,18.4,5.7L18.4,5.7z M14.2,8.2H5.4C5.2,8.2,5.1,8,5.1,7.8v-3c0-0.2,0.2-0.4,0.4-0.4
				h8.7c0.2,0,0.4,0.2,0.4,0.4v3C14.6,8,14.4,8.2,14.2,8.2L14.2,8.2z M5.9,12.9c-0.5,0-0.9-0.4-0.9-0.8c0-0.5,0.4-0.8,0.9-0.8
				c0.5,0,0.9,0.4,0.9,0.8C6.8,12.6,6.4,12.9,5.9,12.9L5.9,12.9z M12.8,12.1c0-0.5,0.4-0.8,0.9-0.8c0.5,0,0.9,0.4,0.9,0.8
				c0,0.5-0.4,0.8-0.9,0.8C13.2,12.9,12.8,12.6,12.8,12.1L12.8,12.1z M10.7,2.2h3.7c0.2,0,0.4,0.2,0.4,0.4c0,0.2-0.2,0.4-0.4,0.4
				h-3.7c-0.2,0-0.4-0.2-0.4-0.4C10.3,2.4,10.5,2.2,10.7,2.2L10.7,2.2z M5.2,2.2h3.7c0.2,0,0.4,0.2,0.4,0.4C9.3,2.8,9.1,3,8.9,3H5.2
				C5,3,4.8,2.8,4.8,2.6C4.8,2.4,5,2.2,5.2,2.2L5.2,2.2z M11.5,14.2H8.1c-0.2,0-0.4-0.2-0.4-0.4c0-0.2,0.2-0.4,0.4-0.4h3.5
				c0.2,0,0.4,0.2,0.4,0.4C12,14,11.8,14.2,11.5,14.2L11.5,14.2z M11.5,12.7H8.1c-0.2,0-0.4-0.2-0.4-0.4c0-0.2,0.2-0.4,0.4-0.4h3.5
				c0.2,0,0.4,0.2,0.4,0.4C12,12.6,11.8,12.7,11.5,12.7L11.5,12.7z M11.5,11.2H8.1c-0.2,0-0.4-0.2-0.4-0.4c0-0.2,0.2-0.4,0.4-0.4
				h3.5c0.2,0,0.4,0.2,0.4,0.4C12,11.1,11.8,11.2,11.5,11.2L11.5,11.2z M11.5,11.2"/>
		</g>
	</g>
</g>
<g id="Layer_2">
	<circle class="st5" cx="9.8" cy="8.9" r="8.9"/>
	<rect x="-0.5" y="3.5" class="st6" width="21" height="35.5"/>
	<text transform="matrix(1 0 0 1 5.5933 13.1452)" class="st7 st8 st9">p</text>
	<g class="st0">
		<ellipse class="st1" cx="1.4" cy="6" rx="1" ry="0.6"/>
		<ellipse class="st1" cx="19" cy="6" rx="1" ry="0.6"/>
		<path class="st1" d="M14.3,2.3h-4.1H6.1c0,0-3.1,2.1-4.4,6V15h2.9v-0.8h5.6h5.6V15h2.9V8.2C17.4,4.4,14.3,2.3,14.3,2.3z M6.4,2.9
			h3.8H14c0,0,1.9,1.5,2.9,3.5h-6.7H3.4C4.4,4.4,6.4,2.9,6.4,2.9z M3.9,10.7c-1.7-0.2-1.6-1.3-1.5-1.3l0.9-0.2l2.2,1
			C5.3,10.8,3.9,10.7,3.9,10.7z M12.5,13.3H7.9v-0.7h4.6V13.3z M12.7,12h-2.5H7.7l-1-1.4h3.5h3.5L12.7,12z M16.5,10.7
			c0,0-1.4,0.1-1.6-0.5l2.2-1L18,9.4C18.1,9.4,18.2,10.5,16.5,10.7z"/>
	</g>
	<path class="st5" d="M18.3,16.3L10.7,5.1l2.5-4.2L11.7,0L9.9,3.1L8.1,0L6.6,0.9l2.5,4.2L1.5,16.3c-0.2,0.3-0.2,0.6,0,0.9
		c0.2,0.3,0.4,0.4,0.7,0.4h5.1v-1.7c0-1.4,1.2-2.6,2.6-2.6s2.6,1.2,2.6,2.6v1.7h5.1c0.3,0,0.6-0.2,0.7-0.4
		C18.5,16.9,18.5,16.5,18.3,16.3z"/>
	<rect x="0.9" y="13" class="st5" width="18.6" height="2"/>
	<path class="st5" d="M18.6,11.9c0-2.2-0.9-4.3-2.5-5.8c-1.3-1.3-3-2.1-4.8-2.4c0.1-0.2,0.2-0.4,0.2-0.7c0-0.8-0.6-1.4-1.4-1.4
		C9.4,1.6,8.8,2.2,8.8,3c0,0.3,0.1,0.5,0.2,0.7C7.2,3.9,5.5,4.8,4.2,6.1c-1.6,1.6-2.4,3.6-2.5,5.8H18.6z"/>
	<g class="st0">
		<defs>
			<rect id="SVGID_5_" x="1.8" y="0.9" width="15.9" height="15.8"/>
		</defs>
		<clipPath id="SVGID_6_" class="st2">
			<use xlink:href="#SVGID_5_"  style="overflow:visible;"/>
		</clipPath>
		<path class="st10" d="M17.6,16V9.9c0-0.2-0.2-0.5-0.4-0.6l-5.8-2.3V1.5c0-0.3-0.3-0.6-0.6-0.6H2.4C2,0.9,1.8,1.1,1.8,1.5V16
			c0,0.3,0.3,0.6,0.6,0.6h2.8v-1.2c0-0.8,0.6-1.4,1.4-1.4C7.4,14,8,14.6,8,15.4v1.2h9C17.4,16.6,17.6,16.4,17.6,16L17.6,16z
			 M5.5,12.8H3.6v-1.6c0-0.5,0.4-0.9,0.9-0.9c0.5,0,0.9,0.4,0.9,0.9L5.5,12.8L5.5,12.8z M5.5,8.9H3.6V7.3c0-0.5,0.4-0.9,0.9-0.9
			c0.5,0,0.9,0.4,0.9,0.9L5.5,8.9L5.5,8.9z M5.5,5.1H3.6V3.5C3.6,3,4,2.6,4.5,2.6c0.5,0,0.9,0.4,0.9,0.9L5.5,5.1L5.5,5.1z M9.6,12.8
			H7.7v-1.6c0-0.5,0.4-0.9,0.9-0.9c0.5,0,0.9,0.4,0.9,0.9L9.6,12.8L9.6,12.8z M9.6,8.9H7.7V7.3c0-0.5,0.4-0.9,0.9-0.9
			c0.5,0,0.9,0.4,0.9,0.9L9.6,8.9L9.6,8.9z M9.6,5.1H7.7V3.5c0-0.5,0.4-0.9,0.9-0.9c0.5,0,0.9,0.4,0.9,0.9L9.6,5.1L9.6,5.1z
			 M16.2,13.6h-3.4V9.2l3.4,1.3V13.6z M16.2,13.6"/>
	</g>
	<polyline class="st5" points="9.7,8.8 9.7,8.8 9.7,8.8 	"/>
	<g class="st0">
		<g class="st2">
			<defs>
				<rect id="SVGID_7_" x="13.1" y="0.9" width="3.3" height="3.3"/>
			</defs>
			<clipPath id="SVGID_8_">
				<use xlink:href="#SVGID_7_"  style="overflow:visible;"/>
			</clipPath>
			<path class="st11" d="M14.8,0.9l0.4,1l1,0.1c0.1,0,0.1,0.1,0,0.1l-0.8,0.7l0.2,1c0,0.1-0.1,0.1-0.1,0.1l-0.9-0.5l-0.9,0.5
				c-0.1,0-0.1,0-0.1-0.1l0.2-1l-0.8-0.7c-0.1,0,0-0.1,0-0.1l1-0.1l0.4-1C14.7,0.9,14.8,0.9,14.8,0.9L14.8,0.9z M14.8,0.9"/>
		</g>
	</g>
	<g class="st0">
		<g class="st2">
			<defs>
				<rect id="SVGID_9_" x="13.1" y="4.2" width="3.3" height="3.3"/>
			</defs>
			<clipPath id="SVGID_10_">
				<use xlink:href="#SVGID_9_"  style="overflow:visible;"/>
			</clipPath>
			<path class="st12" d="M14.8,4.3l0.4,1l1,0.1c0.1,0,0.1,0.1,0,0.1l-0.8,0.7l0.2,1c0,0.1-0.1,0.1-0.1,0.1l-0.9-0.5l-0.9,0.5
				c-0.1,0-0.1,0-0.1-0.1l0.2-1l-0.8-0.7c-0.1,0,0-0.1,0-0.1l1-0.1l0.4-1C14.7,4.2,14.8,4.2,14.8,4.3L14.8,4.3z M14.8,4.3"/>
		</g>
	</g>
	<rect x="0.2" class="st13" width="18.9" height="18.9"/>
	<path class="st5" d="M16,1.6H3.4c-0.9,0-1.6,0.7-1.6,1.6v9.4c0,0.9,0.7,1.6,1.6,1.6h0.8v3.1l3.1-3.1H16c0.9,0,1.6-0.7,1.6-1.6V3.1
		C17.5,2.3,16.8,1.6,16,1.6z M12,4.5c0.5,0,1,0.4,1,1s-0.4,1-1,1s-1-0.4-1-1S11.5,4.5,12,4.5z M7.3,4.5c0.5,0,1,0.4,1,1s-0.4,1-1,1
		s-1-0.4-1-1S6.8,4.5,7.3,4.5z M9.7,11c-1.6,0-3-1-3.6-2.4h7.2C12.7,10,11.3,11,9.7,11z"/>
	<g>
		<path class="st14" d="M7.9,10c0-0.2-0.2-0.4-0.4-0.4H6.1c-0.2,0-0.4,0.2-0.4,0.4v1.4c0,0.2,0.2,0.4,0.4,0.4h1.4
			c0.2,0,0.4-0.2,0.4-0.4V10z M7.9,10"/>
		<path class="st14" d="M11.2,10c0-0.2-0.2-0.4-0.4-0.4H9.5c-0.2,0-0.4,0.2-0.4,0.4v1.4c0,0.2,0.2,0.4,0.4,0.4h1.4
			c0.2,0,0.4-0.2,0.4-0.4V10z M11.2,10"/>
		<path class="st14" d="M14.6,10c0-0.2-0.2-0.4-0.4-0.4h-1.4c-0.2,0-0.4,0.2-0.4,0.4v1.4c0,0.2,0.2,0.4,0.4,0.4h1.4
			c0.2,0,0.4-0.2,0.4-0.4V10z M14.6,10"/>
		<path class="st14" d="M7.9,13.4c0-0.2-0.2-0.4-0.4-0.4H6.1c-0.2,0-0.4,0.2-0.4,0.4v1.4c0,0.2,0.2,0.4,0.4,0.4h1.4
			c0.2,0,0.4-0.2,0.4-0.4V13.4z M7.9,13.4"/>
		<path class="st14" d="M11.2,13.4c0-0.2-0.2-0.4-0.4-0.4H9.5c-0.2,0-0.4,0.2-0.4,0.4v1.4c0,0.2,0.2,0.4,0.4,0.4h1.4
			c0.2,0,0.4-0.2,0.4-0.4V13.4z M11.2,13.4"/>
		<g>
			<defs>
				<rect id="SVGID_11_" x="1.8" y="0.6" width="16.7" height="17.1"/>
			</defs>
			<clipPath id="SVGID_12_">
				<use xlink:href="#SVGID_11_"  style="overflow:visible;"/>
			</clipPath>
			<path class="st15" d="M14.6,13.4c0-0.2-0.2-0.4-0.4-0.4h-1.4c-0.2,0-0.4,0.2-0.4,0.4v1.4c0,0.2,0.2,0.4,0.4,0.4h1.4
				c0.2,0,0.4-0.2,0.4-0.4V13.4z M14.6,13.4"/>
			<path class="st15" d="M17,2.5v2.1c0,0.9-0.8,1.7-1.7,1.7h-1.1c-0.9,0-1.7-0.8-1.7-1.7V2.5H7.8v2.1c0,0.9-0.8,1.7-1.7,1.7H5
				c-0.9,0-1.7-0.8-1.7-1.7V2.5C2.5,2.5,1.8,3.2,1.8,4v12.1c0,0.8,0.7,1.5,1.5,1.5H17c0.8,0,1.5-0.7,1.5-1.5V4
				C18.5,3.2,17.9,2.5,17,2.5L17,2.5z M16.5,15.4c0,0.4-0.3,0.7-0.7,0.7H4.4c-0.4,0-0.7-0.3-0.7-0.7V9.1c0-0.4,0.3-0.7,0.7-0.7h11.5
				c0.4,0,0.7,0.3,0.7,0.7V15.4z M16.5,15.4"/>
		</g>
		<path class="st14" d="M5,5.1H6c0.3,0,0.6-0.3,0.6-0.6V1.2c0-0.3-0.3-0.6-0.6-0.6H5c-0.3,0-0.6,0.3-0.6,0.6v3.4
			C4.4,4.9,4.7,5.1,5,5.1L5,5.1z M5,5.1"/>
		<path class="st14" d="M14.3,5.1h1.1c0.3,0,0.6-0.3,0.6-0.6V1.2c0-0.3-0.3-0.6-0.6-0.6h-1.1c-0.3,0-0.6,0.3-0.6,0.6v3.4
			C13.7,4.9,13.9,5.1,14.3,5.1L14.3,5.1z M14.3,5.1"/>
	</g>
</g>
</svg>
